<svg width="24" height="16" viewBox="0 0 24 16" fill="none" xmlns="http://www.w3.org/2000/svg">
<path d="M23.0625 7.11102H0.9375C0.419719 7.11102 0 7.50898 0 7.99991C0 8.49084 0.419719 8.88879 0.9375 8.88879H23.0625C23.5803 8.88879 24 8.49084 24 7.99991C24 7.50898 23.5803 7.11102 23.0625 7.11102Z" fill="white"/>
<path d="M23.0625 0H0.9375C0.419719 0 0 0.397954 0 0.888885C0 1.37982 0.419719 1.77777 0.9375 1.77777H23.0625C23.5803 1.77777 24 1.37982 24 0.888885C24 0.397954 23.5803 0 23.0625 0Z" fill="white"/>
<path d="M23.0625 14.2222H0.9375C0.419719 14.2222 0 14.6202 0 15.1111C0 15.602 0.419719 16 0.9375 16H23.0625C23.5803 16 24 15.602 24 15.1111C24 14.6202 23.5803 14.2222 23.0625 14.2222Z" fill="white"/>
</svg>
