<svg width="26" height="26" viewBox="0 0 26 26" fill="none" xmlns="http://www.w3.org/2000/svg">
<path d="M23.158 17.3429C21.6165 17.3429 20.1029 17.1018 18.6686 16.6278C17.9658 16.3881 17.1018 16.608 16.6728 17.0485L13.8418 19.1857C10.5586 17.4331 8.53617 15.4114 6.80752 12.1528L8.88178 9.3955C9.42069 8.85731 9.61399 8.07114 9.3824 7.3335C8.90637 5.89164 8.66455 4.37877 8.66455 2.8366C8.66462 1.72252 7.75827 0.816162 6.64426 0.816162H2.02036C0.906354 0.816162 0 1.72252 0 2.83653C0 15.606 10.3885 25.9945 23.158 25.9945C24.272 25.9945 25.1784 25.0882 25.1784 23.9742V19.3632C25.1783 18.2492 24.272 17.3429 23.158 17.3429Z" fill="white"/>
</svg>
