<svg aria-hidden="true" style="position: absolute; width: 0; height: 0; overflow: hidden;" version="1.1" xmlns="http://www.w3.org/2000/svg" xmlns:xlink="http://www.w3.org/1999/xlink">
<defs>
<symbol id="icon-search18x18" viewBox="0 0 32 32">
<path d="M31.804 29.92l-9.296-9.298c1.759-2.15 2.825-4.926 2.825-7.951 0-0.002 0-0.003 0-0.005v0c0-6.985-5.682-12.667-12.667-12.667-6.992 0.008-12.659 5.674-12.667 12.666v0.001c0.008 6.992 5.674 12.659 12.666 12.667h0.001c0.002 0 0.004 0 0.007 0 3.025 0 5.801-1.066 7.973-2.843l-0.022 0.018 9.296 9.298c0.121 0.12 0.287 0.195 0.471 0.195s0.351-0.075 0.471-0.195v0l0.942-0.944c0.12-0.121 0.195-0.287 0.195-0.471s-0.075-0.351-0.195-0.471v0zM12.667 22.667c-5.52-0.006-9.994-4.48-10-9.999v-0.001c0.006-5.52 4.48-9.994 9.999-10h0.001c5.52 0.006 9.994 4.48 10 9.999v0.001c-0.006 5.52-4.48 9.994-9.999 10h-0.001z"></path>
</symbol>
<symbol id="icon-search30x30" viewBox="0 0 32 32">
<path d="M30.899 29.541l-8.957-8.957c1.694-2.071 2.721-4.746 2.721-7.66 0-0.002 0-0.005 0-0.007v0c0-6.73-5.475-12.205-12.203-12.205-6.731 0-12.206 5.475-12.206 12.205s5.476 12.204 12.206 12.204c2.903 0 5.569-1.022 7.667-2.721l8.957 8.957c0.116 0.116 0.277 0.188 0.454 0.188s0.338-0.072 0.454-0.188l0.908-0.908c0.116-0.116 0.188-0.277 0.188-0.454s-0.072-0.338-0.188-0.454v0zM12.458 22.553c-5.314 0-9.636-4.322-9.636-9.635s4.322-9.635 9.636-9.635c5.313 0 9.635 4.322 9.635 9.635s-4.322 9.635-9.635 9.635z"></path>
</symbol>
<symbol id="close-list-icon" viewBox="0 0 58 32">
<path fill="none" stroke="#294b29" style="stroke: var(--color1, #294b29)" stroke-linejoin="miter" stroke-linecap="butt" stroke-miterlimit="4" stroke-width="5.6343" d="M53.608 4.531l-25.354 22.537-25.354-22.537"></path>
</symbol>
<symbol id="open-list-icon" viewBox="0 0 64 32">
<path fill="none" stroke="#294b29" style="stroke: var(--color1, #294b29)" stroke-linejoin="miter" stroke-linecap="butt" stroke-miterlimit="4" stroke-width="6.1978" d="M3.628 29.299l27.89-24.791 27.89 24.791"></path>
</symbol>
<symbol id="tel-icon" viewBox="0 0 32 32">
<path d="M28.502 21.345c-1.897 0-3.76-0.297-5.525-0.88-0.865-0.295-1.928-0.024-2.456 0.518l-3.484 2.63c-4.041-2.157-6.53-4.645-8.658-8.656l2.553-3.394c0.663-0.662 0.901-1.63 0.616-2.538-0.586-1.775-0.883-3.637-0.883-5.535 0-1.371-1.115-2.487-2.486-2.487h-5.691c-1.371 0-2.487 1.116-2.487 2.487 0 15.716 12.786 28.502 28.502 28.502 1.371 0 2.487-1.115 2.487-2.487v-5.675c-0-1.371-1.116-2.487-2.487-2.487z"></path>
</symbol>
<symbol id="user-icon" viewBox="0 0 31 32">
<path d="M26.604 20.511c-1.697-1.697-3.718-2.954-5.922-3.715 2.361-1.626 3.912-4.347 3.912-7.425 0-4.968-4.042-9.010-9.010-9.010s-9.010 4.042-9.010 9.010c0 3.077 1.551 5.799 3.912 7.425-2.204 0.761-4.225 2.017-5.922 3.715-2.943 2.944-4.565 6.857-4.565 11.020h2.435c0-7.251 5.899-13.149 13.149-13.149s13.149 5.899 13.149 13.149h2.435c0-4.163-1.621-8.076-4.564-11.020zM15.584 15.947c-3.625 0-6.575-2.949-6.575-6.575s2.949-6.575 6.575-6.575c3.625 0 6.575 2.949 6.575 6.575s-2.949 6.575-6.575 6.575z"></path>
</symbol>
<symbol id="icon-cross" viewBox="0 0 32 32">
<path d="M29.582 27.465l-26.349-26.349c-0.617-0.617-1.59-0.643-2.175-0.058s-0.559 1.558 0.058 2.175l26.349 26.349c0.617 0.617 1.59 0.643 2.175 0.058s0.559-1.558-0.058-2.175z"></path>
<path d="M27.656 1.308l-26.349 26.349c-0.617 0.617-0.643 1.59-0.058 2.175s1.558 0.559 2.175-0.058l26.349-26.349c0.617-0.617 0.643-1.59 0.058-2.175s-1.558-0.559-2.175 0.058z"></path>
</symbol>
<symbol id="icon-menu" viewBox="0 0 48 32">
<path d="M46.125 14.222h-44.25c-1.036 0-1.875 0.796-1.875 1.778s0.839 1.778 1.875 1.778h44.25c1.036 0 1.875-0.796 1.875-1.778s-0.839-1.778-1.875-1.778z"></path>
<path d="M46.125 0h-44.25c-1.036 0-1.875 0.796-1.875 1.778s0.839 1.778 1.875 1.778h44.25c1.036 0 1.875-0.796 1.875-1.778s-0.839-1.778-1.875-1.778z"></path>
<path d="M46.125 28.444h-44.25c-1.036 0-1.875 0.796-1.875 1.778s0.839 1.778 1.875 1.778h44.25c1.036 0 1.875-0.796 1.875-1.778s-0.839-1.778-1.875-1.778z"></path>
</symbol>
</defs>
</svg>
