<svg width="52" height="53" viewBox="0 0 52 53" fill="none" xmlns="http://www.w3.org/2000/svg">
<path d="M44.0632 33.9716C41.2518 31.1604 37.9056 29.0792 34.2547 27.8194C38.1649 25.1262 40.7339 20.619 40.7339 15.5224C40.7339 7.29427 34.0397 0.600098 25.8116 0.600098C17.5834 0.600098 10.8893 7.29427 10.8893 15.5224C10.8893 20.619 13.4582 25.1262 17.3686 27.8194C13.7176 29.0792 10.3714 31.1604 7.56007 33.9716C2.68491 38.8469 0 45.3287 0 52.2232H4.03306C4.03306 40.2145 13.8028 30.4447 25.8116 30.4447C37.8203 30.4447 47.5901 40.2145 47.5901 52.2232H51.6231C51.6231 45.3287 48.9382 38.8469 44.0632 33.9716ZM25.8116 26.4117C19.8073 26.4117 14.9223 21.5268 14.9223 15.5224C14.9223 9.51799 19.8073 4.63315 25.8116 4.63315C31.8159 4.63315 36.7008 9.51799 36.7008 15.5224C36.7008 21.5268 31.8159 26.4117 25.8116 26.4117Z" fill="white"/>
</svg>
